# xmcd
#
# Track frame offsets:
#	150
#	18062
#	33080
#	50846
#	66312
#	85914
#
# Disc length: 1337 seconds
#
# Revision: 1
# Processed by: cddbd v1.5.2PL0 Copyright (c) Steve Scherf et al.
# Submitted via: EasyCDDAExtractor 15.3.0.1
#
DISCID=44053706
DTITLE=Christina Perri - A Very Merry Perri Christmas
DYEAR=2012
DGENRE=Christmas
TTITLE0=Something About December
TTITLE1=Merry Christmas Darling
TTITLE2=Please Come Home For Christmas
TTITLE3=Ave Maria
TTITLE4=Happy Xmas (War Is Over)
TTITLE5=Have Yourself A Merry Little Christmas
EXTD=
EXTT0=
EXTT1=
EXTT2=
EXTT3=
EXTT4=
EXTT5=
PLAYORDER=
